<svg width="21" height="23" viewBox="0 0 21 23" fill="none" xmlns="http://www.w3.org/2000/svg">
<path d="M19 3.5C19 5.433 17.433 7 15.5 7C13.567 7 12 5.433 12 3.5C12 1.567 13.567 0 15.5 0C17.433 0 19 1.567 19 3.5Z" fill="url(#paint0_linear_752_648)"/>
<path fill-rule="evenodd" clip-rule="evenodd" d="M0.945925 7.36138L10.2517 1.58124C10.4093 1.47848 10.6186 1.46944 10.789 1.57526L20.1044 7.36138C20.5338 7.6281 20.7949 8.09773 20.7949 8.60323C20.7949 9.39915 20.1861 9.98304 19.4856 10.059V17.2158V18.8022V19.9229C19.5779 19.9383 19.6668 19.96 19.7509 19.9901C20.0067 20.0816 20.2072 20.2468 20.3339 20.4941C20.4458 20.7123 20.4832 20.9636 20.5005 21.2021C20.5088 21.3158 20.5132 21.4408 20.5154 21.5755H21V22.5755H20.018H1.15827H0V21.5755H0.659624C0.66135 21.3885 0.665281 21.2244 0.674228 21.0834C0.689535 20.8422 0.722142 20.5834 0.840799 20.3698C0.987628 20.1055 1.21953 19.9823 1.4562 19.9311C1.50781 19.92 1.56221 19.9117 1.61838 19.9056L1.62591 18.7988L1.6367 17.2124L1.68531 10.0669C0.935606 10.0489 0.255371 9.44453 0.255371 8.60323C0.255371 8.09773 0.516518 7.6281 0.945925 7.36138ZM2.68764 9.72865L2.6401 16.7158H4.07914V17.7158H2.6333L2.62925 18.3112L4.91911 18.3526L4.90103 19.3524L2.62245 19.3112L2.61852 19.8885H7.96043V16.1835C7.96043 14.767 9.10871 13.6187 10.5252 13.6187C11.9416 13.6187 13.0899 14.767 13.0899 16.1835V19.8885H18.4856V19.3114L16.2502 19.3524L16.2318 18.3526L18.4856 18.3113V17.7158H17.0216V16.7158H18.4856V9.80091L10.5251 5.12311L2.68764 9.72865ZM1.47356 8.21085L10.5251 2.58861L19.5767 8.21085C19.7124 8.29513 19.7949 8.44351 19.7949 8.60323C19.7949 8.96039 19.4069 9.18242 19.099 9.00147L10.7785 4.11208C10.6133 4.01506 10.4154 4.0236 10.2628 4.11737L1.9513 9.00147C1.64337 9.18242 1.25537 8.96039 1.25537 8.60323C1.25537 8.44351 1.33788 8.29513 1.47356 8.21085ZM12.0899 16.1835V19.8885H8.96043V16.1835C8.96043 15.3193 9.66099 14.6187 10.5252 14.6187C11.3894 14.6187 12.0899 15.3193 12.0899 16.1835ZM19.5032 21.2746C19.5096 21.363 19.5132 21.4623 19.5153 21.5755H1.65968C1.66129 21.4045 1.66477 21.2642 1.67222 21.1468C1.67896 21.0406 1.68824 20.967 1.69871 20.9155L1.70147 20.9025C1.77607 20.8919 1.89567 20.8885 2.11511 20.8885H8.46043H12.5899H18.9856C19.2293 20.8885 19.3523 20.9096 19.414 20.9317C19.4423 20.9418 19.4428 20.9447 19.4433 20.9479C19.4434 20.9484 19.4435 20.9488 19.4436 20.9492C19.4437 20.9495 19.4438 20.9498 19.444 20.9502C19.4612 20.9837 19.4882 21.0692 19.5032 21.2746ZM12.9676 11.8561H8.13309V12.8561H12.9676V11.8561ZM10.554 16.6619V17.8705H11.554V16.6619H10.554Z" fill="url(#paint1_linear_752_648)" fill-opacity="0.3"/>
<defs>
<linearGradient id="paint0_linear_752_648" x1="12" y1="0" x2="20.2458" y2="2.09376" gradientUnits="userSpaceOnUse">
<stop stop-color="#FFD482"/>
<stop offset="1" stop-color="#FF377F"/>
</linearGradient>
<linearGradient id="paint1_linear_752_648" x1="0.65625" y1="1.97024" x2="21" y2="1.97024" gradientUnits="userSpaceOnUse">
<stop stop-color="#FFC282"/>
<stop offset="1" stop-color="#FF4980"/>
</linearGradient>
</defs>
</svg>
