<svg width="99" height="95" viewBox="0 0 99 95" fill="none" xmlns="http://www.w3.org/2000/svg">
<path d="M19.3874 60.9583C20.1664 59.9616 21.3891 59.375 22.6874 59.375H76.3124C77.611 59.375 78.8332 59.9616 79.6124 60.9583L86.7899 70.1417C88.4214 72.2293 86.8691 75.2083 84.1499 75.2083H14.8499C12.1306 75.2083 10.5783 72.2293 12.2099 70.1417L19.3874 60.9583Z" fill="url(#paint0_linear_420_489)"/>
<path d="M65.1455 20.6115C66.7563 19.0656 69.3683 19.0656 70.9791 20.6115L77.5205 26.8885C79.1313 28.4344 79.1313 30.9406 77.5205 32.4865L68.9166 40.7427C67.3058 42.2885 64.6938 42.2885 63.083 40.7427L56.5416 34.4656C54.9308 32.9198 54.9308 30.4135 56.5416 28.8677L65.1455 20.6115Z" fill="url(#paint1_linear_420_489)"/>
<g filter="url(#filter0_i_420_489)">
<path d="M58.9582 22.5907L30.0832 50.299C29.3096 51.0411 28.875 52.0481 28.875 53.0979V63.3334C28.875 65.5195 30.7218 67.2917 33 67.2917H43.6664C44.7604 67.2917 45.8098 66.8745 46.5832 66.1323L75.4582 38.424C77.069 36.8781 77.069 34.3719 75.4582 32.826L64.7918 22.5907C63.181 21.0448 60.569 21.0448 58.9582 22.5907Z" fill="#1D1D1D" fill-opacity="0.05"/>
<path d="M58.9582 22.5907L30.0832 50.299C29.3096 51.0411 28.875 52.0481 28.875 53.0979V63.3334C28.875 65.5195 30.7218 67.2917 33 67.2917H43.6664C44.7604 67.2917 45.8098 66.8745 46.5832 66.1323L75.4582 38.424C77.069 36.8781 77.069 34.3719 75.4582 32.826L64.7918 22.5907C63.181 21.0448 60.569 21.0448 58.9582 22.5907Z" fill="url(#paint2_linear_420_489)" fill-opacity="0.2"/>
<path d="M30.3749 50.5788L59.2499 22.8706C60.6999 21.4793 63.0503 21.4793 64.5002 22.8706L75.1667 33.106C76.6166 34.4972 76.6166 36.7528 75.1667 38.1441L46.2917 65.8525C45.5954 66.5206 44.6512 66.8959 43.6665 66.8959H33.0001C30.9497 66.8959 29.2876 65.3011 29.2876 63.3334V53.0979C29.2876 52.1531 29.6787 51.247 30.3749 50.5788Z" stroke="url(#paint3_linear_420_489)" stroke-opacity="0.1" stroke-width="0.2"/>
</g>
<defs>
<filter id="filter0_i_420_489" x="28.875" y="21.4313" width="47.7915" height="46.3604" filterUnits="userSpaceOnUse" color-interpolation-filters="sRGB">
<feFlood flood-opacity="0" result="BackgroundImageFix"/>
<feBlend mode="normal" in="SourceGraphic" in2="BackgroundImageFix" result="shape"/>
<feColorMatrix in="SourceAlpha" type="matrix" values="0 0 0 0 0 0 0 0 0 0 0 0 0 0 0 0 0 0 127 0" result="hardAlpha"/>
<feOffset dy="0.5"/>
<feGaussianBlur stdDeviation="1"/>
<feComposite in2="hardAlpha" operator="arithmetic" k2="-1" k3="1"/>
<feColorMatrix type="matrix" values="0 0 0 0 1 0 0 0 0 1 0 0 0 0 1 0 0 0 0.15 0"/>
<feBlend mode="normal" in2="shape" result="effect1_innerShadow_420_489"/>
</filter>
<linearGradient id="paint0_linear_420_489" x1="11.6874" y1="62.5417" x2="71.8472" y2="106.078" gradientUnits="userSpaceOnUse">
<stop stop-color="#D9D9D9"/>
<stop offset="1" stop-color="#CAC0EF" stop-opacity="0.9"/>
</linearGradient>
<linearGradient id="paint1_linear_420_489" x1="65.6904" y1="21.0781" x2="77.0323" y2="36.0918" gradientUnits="userSpaceOnUse">
<stop stop-color="#D9D9D9"/>
<stop offset="1" stop-color="#9980FA" stop-opacity="0.9"/>
</linearGradient>
<linearGradient id="paint2_linear_420_489" x1="30.9375" y1="29.2917" x2="84.809" y2="37.0889" gradientUnits="userSpaceOnUse">
<stop stop-color="#D9D9D9"/>
<stop offset="1" stop-color="#9980FA" stop-opacity="0.9"/>
</linearGradient>
<linearGradient id="paint3_linear_420_489" x1="30.422" y1="21.9508" x2="78.3751" y2="21.9508" gradientUnits="userSpaceOnUse">
<stop stop-color="#D9D9D9"/>
<stop offset="1" stop-color="#9980FA" stop-opacity="0.9"/>
</linearGradient>
</defs>
</svg>
