<svg width="24" height="24" viewBox="0 0 24 24" fill="none" xmlns="http://www.w3.org/2000/svg">
<circle cx="14.5" cy="9.5" r="7.5" fill="url(#paint0_linear_35_2500)"/>
<g filter="url(#filter0_bi_35_2500)">
<rect x="4" y="4" width="16" height="16" rx="3" fill="#F1F1F1" fill-opacity="0.1"/>
<rect x="4" y="4" width="16" height="16" rx="3" fill="url(#paint1_linear_35_2500)" fill-opacity="0.2"/>
<rect x="4.1" y="4.1" width="15.8" height="15.8" rx="2.9" stroke="url(#paint2_linear_35_2500)" stroke-opacity="0.1" stroke-width="0.2"/>
</g>
<g filter="url(#filter1_i_35_2500)">
<path d="M9.87849 8.46446C9.48797 8.07394 8.8548 8.07394 8.46428 8.46446C8.07376 8.85499 8.07376 9.48815 8.46428 9.87868L10.5856 12L8.46428 14.1213C8.07376 14.5118 8.07376 15.145 8.46428 15.5355C8.8548 15.9261 9.48797 15.9261 9.87849 15.5355L11.9998 13.4142L14.1211 15.5355C14.5117 15.9261 15.1448 15.9261 15.5353 15.5355C15.9259 15.145 15.9259 14.5118 15.5353 14.1213L13.414 12L15.5353 9.87868C15.9259 9.48815 15.9259 8.85499 15.5353 8.46446C15.1448 8.07394 14.5117 8.07394 14.1211 8.46446L11.9998 10.5858L9.87849 8.46446Z" fill="white" fill-opacity="0.16"/>
</g>
<defs>
<filter id="filter0_bi_35_2500" x="1" y="1" width="22" height="22" filterUnits="userSpaceOnUse" color-interpolation-filters="sRGB">
<feFlood flood-opacity="0" result="BackgroundImageFix"/>
<feGaussianBlur in="BackgroundImageFix" stdDeviation="1.5"/>
<feComposite in2="SourceAlpha" operator="in" result="effect1_backgroundBlur_35_2500"/>
<feBlend mode="normal" in="SourceGraphic" in2="effect1_backgroundBlur_35_2500" result="shape"/>
<feColorMatrix in="SourceAlpha" type="matrix" values="0 0 0 0 0 0 0 0 0 0 0 0 0 0 0 0 0 0 127 0" result="hardAlpha"/>
<feOffset dy="0.5"/>
<feGaussianBlur stdDeviation="1"/>
<feComposite in2="hardAlpha" operator="arithmetic" k2="-1" k3="1"/>
<feColorMatrix type="matrix" values="0 0 0 0 1 0 0 0 0 1 0 0 0 0 1 0 0 0 0.4 0"/>
<feBlend mode="normal" in2="shape" result="effect2_innerShadow_35_2500"/>
</filter>
<filter id="filter1_i_35_2500" x="8.17139" y="8.17157" width="7.65674" height="8.15686" filterUnits="userSpaceOnUse" color-interpolation-filters="sRGB">
<feFlood flood-opacity="0" result="BackgroundImageFix"/>
<feBlend mode="normal" in="SourceGraphic" in2="BackgroundImageFix" result="shape"/>
<feColorMatrix in="SourceAlpha" type="matrix" values="0 0 0 0 0 0 0 0 0 0 0 0 0 0 0 0 0 0 127 0" result="hardAlpha"/>
<feOffset dy="0.5"/>
<feGaussianBlur stdDeviation="0.25"/>
<feComposite in2="hardAlpha" operator="arithmetic" k2="-1" k3="1"/>
<feColorMatrix type="matrix" values="0 0 0 0 1 0 0 0 0 1 0 0 0 0 1 0 0 0 0.4 0"/>
<feBlend mode="normal" in2="shape" result="effect1_innerShadow_35_2500"/>
</filter>
<linearGradient id="paint0_linear_35_2500" x1="7" y1="2" x2="24.6695" y2="6.48662" gradientUnits="userSpaceOnUse">
<stop stop-color="#FFD482"/>
<stop offset="1" stop-color="#FF377F"/>
</linearGradient>
<linearGradient id="paint1_linear_35_2500" x1="4" y1="4" x2="22.8475" y2="8.78573" gradientUnits="userSpaceOnUse">
<stop stop-color="#FFD482"/>
<stop offset="1" stop-color="#FF377F"/>
</linearGradient>
<linearGradient id="paint2_linear_35_2500" x1="4.5" y1="4.72727" x2="20" y2="4.72727" gradientUnits="userSpaceOnUse">
<stop stop-color="#FFC282"/>
<stop offset="1" stop-color="#FF4980"/>
</linearGradient>
</defs>
</svg>
