<svg width="24" height="24" viewBox="0 0 24 24" fill="none" xmlns="http://www.w3.org/2000/svg">
<circle cx="17" cy="15" r="5" fill="url(#paint0_linear_35_2498)"/>
<g filter="url(#filter0_bi_35_2498)">
<path fill-rule="evenodd" clip-rule="evenodd" d="M10.4775 2.15072C10.8623 2.08095 11.4313 2 12.0003 2C12.5694 2 13.1384 2.08095 13.5232 2.15072C13.826 2.20564 14.0734 2.41441 14.1984 2.69571L15.007 4.5149C15.0928 4.70808 15.2377 4.86909 15.4208 4.97479L16.2659 5.46274C16.449 5.56844 16.6609 5.6134 16.8711 5.59117L18.851 5.38176C19.1572 5.34938 19.4616 5.45922 19.6607 5.69407C19.9135 5.99242 20.2681 6.44473 20.5526 6.93751C20.8371 7.43029 21.0515 7.96355 21.1835 8.33166C21.2873 8.62144 21.2302 8.94005 21.0491 9.18897L19.9859 10.6503C19.8616 10.8213 19.7946 11.0272 19.7946 11.2386V12.512C19.7946 12.7234 19.8616 12.9294 19.9859 13.1004L21.0486 14.561C21.2297 14.81 21.2869 15.1286 21.183 15.4183C21.051 15.7865 20.8366 16.3197 20.5521 16.8125C20.2676 17.3053 19.913 17.7576 19.6602 18.0559C19.4612 18.2908 19.1567 18.4006 18.8505 18.3682L17.237 18.1976C17.0268 18.1753 16.8149 18.2203 16.6318 18.326L15.2713 19.1115C15.0882 19.2172 14.9434 19.3782 14.8575 19.5714L14.1984 21.0543C14.0734 21.3356 13.826 21.5444 13.5232 21.5993C13.1384 21.6691 12.5694 21.75 12.0003 21.75C11.4313 21.75 10.8623 21.6691 10.4775 21.5993C10.1746 21.5444 9.92727 21.3356 9.80225 21.0543L9.14318 19.5714C9.05732 19.3782 8.91245 19.2172 8.72937 19.1115L7.36888 18.326C7.1858 18.2203 6.97393 18.1754 6.7637 18.1976L5.15013 18.3683C4.844 18.4006 4.53952 18.2908 4.34051 18.0559C4.0877 17.7576 3.73309 17.3053 3.44858 16.8125C3.16407 16.3197 2.94966 15.7865 2.8177 15.4184C2.71382 15.1286 2.77093 14.81 2.95204 14.5611L4.01474 13.1004C4.13911 12.9294 4.20611 12.7235 4.20611 12.5121V11.2386C4.20611 11.0272 4.13911 10.8212 4.01474 10.6503L2.95155 9.18895C2.77045 8.94003 2.71333 8.62142 2.81721 8.33164C2.94918 7.96353 3.16359 7.43027 3.4481 6.93749C3.7326 6.44471 4.08721 5.9924 4.34003 5.69405C4.53904 5.4592 4.84352 5.34936 5.14964 5.38174L7.1296 5.59115C7.33983 5.61339 7.55169 5.56843 7.73478 5.46272L8.57991 4.97479C8.76299 4.86909 8.90786 4.70808 8.99372 4.5149L9.80225 2.69571C9.92727 2.41441 10.1746 2.20564 10.4775 2.15072ZM12 16C14.2091 16 16 14.2091 16 12C16 9.79086 14.2091 8 12 8C9.79086 8 8 9.79086 8 12C8 14.2091 9.79086 16 12 16Z" fill="#1D1D1D" fill-opacity="0.05"/>
<path fill-rule="evenodd" clip-rule="evenodd" d="M10.4775 2.15072C10.8623 2.08095 11.4313 2 12.0003 2C12.5694 2 13.1384 2.08095 13.5232 2.15072C13.826 2.20564 14.0734 2.41441 14.1984 2.69571L15.007 4.5149C15.0928 4.70808 15.2377 4.86909 15.4208 4.97479L16.2659 5.46274C16.449 5.56844 16.6609 5.6134 16.8711 5.59117L18.851 5.38176C19.1572 5.34938 19.4616 5.45922 19.6607 5.69407C19.9135 5.99242 20.2681 6.44473 20.5526 6.93751C20.8371 7.43029 21.0515 7.96355 21.1835 8.33166C21.2873 8.62144 21.2302 8.94005 21.0491 9.18897L19.9859 10.6503C19.8616 10.8213 19.7946 11.0272 19.7946 11.2386V12.512C19.7946 12.7234 19.8616 12.9294 19.9859 13.1004L21.0486 14.561C21.2297 14.81 21.2869 15.1286 21.183 15.4183C21.051 15.7865 20.8366 16.3197 20.5521 16.8125C20.2676 17.3053 19.913 17.7576 19.6602 18.0559C19.4612 18.2908 19.1567 18.4006 18.8505 18.3682L17.237 18.1976C17.0268 18.1753 16.8149 18.2203 16.6318 18.326L15.2713 19.1115C15.0882 19.2172 14.9434 19.3782 14.8575 19.5714L14.1984 21.0543C14.0734 21.3356 13.826 21.5444 13.5232 21.5993C13.1384 21.6691 12.5694 21.75 12.0003 21.75C11.4313 21.75 10.8623 21.6691 10.4775 21.5993C10.1746 21.5444 9.92727 21.3356 9.80225 21.0543L9.14318 19.5714C9.05732 19.3782 8.91245 19.2172 8.72937 19.1115L7.36888 18.326C7.1858 18.2203 6.97393 18.1754 6.7637 18.1976L5.15013 18.3683C4.844 18.4006 4.53952 18.2908 4.34051 18.0559C4.0877 17.7576 3.73309 17.3053 3.44858 16.8125C3.16407 16.3197 2.94966 15.7865 2.8177 15.4184C2.71382 15.1286 2.77093 14.81 2.95204 14.5611L4.01474 13.1004C4.13911 12.9294 4.20611 12.7235 4.20611 12.5121V11.2386C4.20611 11.0272 4.13911 10.8212 4.01474 10.6503L2.95155 9.18895C2.77045 8.94003 2.71333 8.62142 2.81721 8.33164C2.94918 7.96353 3.16359 7.43027 3.4481 6.93749C3.7326 6.44471 4.08721 5.9924 4.34003 5.69405C4.53904 5.4592 4.84352 5.34936 5.14964 5.38174L7.1296 5.59115C7.33983 5.61339 7.55169 5.56843 7.73478 5.46272L8.57991 4.97479C8.76299 4.86909 8.90786 4.70808 8.99372 4.5149L9.80225 2.69571C9.92727 2.41441 10.1746 2.20564 10.4775 2.15072ZM12 16C14.2091 16 16 14.2091 16 12C16 9.79086 14.2091 8 12 8C9.79086 8 8 9.79086 8 12C8 14.2091 9.79086 16 12 16Z" fill="url(#paint1_linear_35_2498)" fill-opacity="0.2"/>
<path d="M10.4954 2.24911C10.8773 2.17986 11.4397 2.1 12.0003 2.1C12.5609 2.1 13.1234 2.17986 13.5053 2.24911C13.7729 2.29763 13.9943 2.4826 14.1071 2.73632L14.9156 4.55552C15.01 4.76802 15.1694 4.94512 15.3708 5.06139L16.2159 5.54934C16.4173 5.66562 16.6504 5.71507 16.8816 5.69061L18.8616 5.48121C19.1377 5.452 19.4086 5.55127 19.5844 5.75872C19.8353 6.05485 20.1857 6.50202 20.466 6.98751C20.7463 7.473 20.9583 8.00003 21.0893 8.36541C21.1811 8.62138 21.1316 8.90561 20.9683 9.13014L19.9051 10.5915C19.7683 10.7795 19.6946 11.0061 19.6946 11.2386V12.512C19.6946 12.7446 19.7683 12.9711 19.9051 13.1592L20.9678 14.6199C21.1311 14.8444 21.1806 15.1286 21.0888 15.3846C20.9579 15.75 20.7458 16.277 20.4655 16.7625C20.1852 17.248 19.8348 17.6952 19.5839 17.9913C19.4081 18.1987 19.1372 18.298 18.8611 18.2688L17.2475 18.0981C17.0163 18.0737 16.7832 18.1231 16.5818 18.2394L15.2213 19.0249C15.0199 19.1412 14.8606 19.3183 14.7661 19.5308L14.1071 21.0137C13.9943 21.2674 13.7729 21.4524 13.5053 21.5009C13.1234 21.5701 12.5609 21.65 12.0003 21.65C11.4397 21.65 10.8773 21.5701 10.4954 21.5009C10.2278 21.4524 10.0064 21.2674 9.89363 21.0137L9.23456 19.5308C9.14012 19.3183 8.98076 19.1412 8.77937 19.0249L7.41888 18.2394C7.21749 18.1232 6.98444 18.0737 6.75318 18.0982L5.13961 18.2688C4.86349 18.298 4.5926 18.1987 4.41681 17.9913C4.16587 17.6952 3.81548 17.248 3.53518 16.7625C3.25489 16.277 3.04282 15.75 2.91183 15.3846C2.82007 15.1286 2.86955 14.8444 3.0329 14.6199L4.09561 13.1592C4.23241 12.9712 4.30611 12.7446 4.30611 12.5121V11.2386C4.30611 11.0061 4.23241 10.7795 4.09561 10.5915L3.03241 9.13012C2.86906 8.90559 2.81959 8.62136 2.91135 8.36539C3.04233 8.00001 3.2544 7.47298 3.5347 6.98749C3.81499 6.502 4.16539 6.05483 4.41632 5.7587C4.59211 5.55125 4.86301 5.45198 5.13913 5.48119L7.11908 5.6906C7.35033 5.71506 7.58339 5.6656 7.78478 5.54933L8.62991 5.06139C8.83129 4.94512 8.99065 4.76802 9.0851 4.55552L9.89363 2.73632C10.0064 2.4826 10.2278 2.29763 10.4954 2.24911ZM12 16.1C14.2644 16.1 16.1 14.2644 16.1 12C16.1 9.73563 14.2644 7.9 12 7.9C9.73563 7.9 7.9 9.73563 7.9 12C7.9 14.2644 9.73563 16.1 12 16.1Z" stroke="url(#paint2_linear_35_2498)" stroke-opacity="0.1" stroke-width="0.2"/>
</g>
<defs>
<filter id="filter0_bi_35_2498" x="-0.234375" y="-1" width="24.4692" height="25.75" filterUnits="userSpaceOnUse" color-interpolation-filters="sRGB">
<feFlood flood-opacity="0" result="BackgroundImageFix"/>
<feGaussianBlur in="BackgroundImageFix" stdDeviation="1.5"/>
<feComposite in2="SourceAlpha" operator="in" result="effect1_backgroundBlur_35_2498"/>
<feBlend mode="normal" in="SourceGraphic" in2="effect1_backgroundBlur_35_2498" result="shape"/>
<feColorMatrix in="SourceAlpha" type="matrix" values="0 0 0 0 0 0 0 0 0 0 0 0 0 0 0 0 0 0 127 0" result="hardAlpha"/>
<feOffset dy="0.5"/>
<feGaussianBlur stdDeviation="1"/>
<feComposite in2="hardAlpha" operator="arithmetic" k2="-1" k3="1"/>
<feColorMatrix type="matrix" values="0 0 0 0 1 0 0 0 0 1 0 0 0 0 1 0 0 0 0.15 0"/>
<feBlend mode="normal" in2="shape" result="effect2_innerShadow_35_2498"/>
</filter>
<linearGradient id="paint0_linear_35_2498" x1="12" y1="10" x2="23.7797" y2="12.9911" gradientUnits="userSpaceOnUse">
<stop stop-color="#FFD482"/>
<stop offset="1" stop-color="#FF377F"/>
</linearGradient>
<linearGradient id="paint1_linear_35_2498" x1="2.76563" y1="2" x2="24.6887" y2="7.20573" gradientUnits="userSpaceOnUse">
<stop stop-color="#FFD482"/>
<stop offset="1" stop-color="#FF377F"/>
</linearGradient>
<linearGradient id="paint2_linear_35_2498" x1="3.34279" y1="2.89773" x2="21.2351" y2="2.89773" gradientUnits="userSpaceOnUse">
<stop stop-color="#FFC282"/>
<stop offset="1" stop-color="#FF4980"/>
</linearGradient>
</defs>
</svg>
